<svg class="icon" viewBox="0 0 1024 1024" version="1.1" xmlns="http://www.w3.org/2000/svg"
     width="20" height="20">
    <path d="M682.666667 42.666667a42.666667 42.666667 0 0 1 42.666666 42.666666v42.666667h85.333334a128 128 0 0 1 128 128v597.333333a128 128 0 0 1-128 128H213.333333a128 128 0 0 1-128-128V256a128 128 0 0 1 128-128h85.333334V85.333333a42.666667 42.666667 0 1 1 85.333333 0v42.666667h256V85.333333a42.666667 42.666667 0 0 1 42.666667-42.666666z m170.666666 426.666666H170.666667v384a42.666667 42.666667 0 0 0 37.674666 42.368L213.333333 896h597.333334a42.666667 42.666667 0 0 0 42.368-37.674667L853.333333 853.333333v-384zM298.666667 213.333333H213.333333a42.666667 42.666667 0 0 0-42.368 37.674667L170.666667 256v128h682.666666V256a42.666667 42.666667 0 0 0-42.666666-42.666667h-85.333334v42.666667a42.666667 42.666667 0 0 1-85.333333 0V213.333333H384v42.666667a42.666667 42.666667 0 1 1-85.333333 0V213.333333z"
          fill="currentColor"></path>
</svg>
